<svg width="1280" height="640" viewBox="0 0 1280 640" xmlns="http://www.w3.org/2000/svg">
  <rect width="1280" height="640" fill="#0A0A0A"/>
  <!-- gradient blobs -->
  <circle cx="200" cy="150" r="300" fill="#0052FF" opacity="0.15" />
  <circle cx="1000" cy="500" r="400" fill="#7C3AED" opacity="0.12" />
  <circle cx="1100" cy="100" r="250" fill="#FF3D00" opacity="0.10" />
  <!-- grid -->
  <g opacity="0.04" stroke="#FFFFFF" stroke-width="1">
    <line x1="0" y1="80" x2="1280" y2="80"/><line x1="0" y1="160" x2="1280" y2="160"/><line x1="0" y1="240" x2="1280" y2="240"/><line x1="0" y1="320" x2="1280" y2="320"/><line x1="0" y1="400" x2="1280" y2="400"/><line x1="0" y1="480" x2="1280" y2="480"/><line x1="0" y1="560" x2="1280" y2="560"/>
    <line x1="80" y1="0" x2="80" y2="640"/><line x1="160" y1="0" x2="160" y2="640"/><line x1="240" y1="0" x2="240" y2="640"/><line x1="320" y1="0" x2="320" y2="640"/><line x1="400" y1="0" x2="400" y2="640"/><line x1="480" y1="0" x2="480" y2="640"/><line x1="560" y1="0" x2="560" y2="640"/><line x1="640" y1="0" x2="640" y2="640"/><line x1="720" y1="0" x2="720" y2="640"/><line x1="800" y1="0" x2="800" y2="640"/><line x1="880" y1="0" x2="880" y2="640"/><line x1="960" y1="0" x2="960" y2="640"/><line x1="1040" y1="0" x2="1040" y2="640"/><line x1="1120" y1="0" x2="1120" y2="640"/><line x1="1200" y1="0" x2="1200" y2="640"/>
  </g>
  <!-- left: logo stack -->
  <g transform="translate(80, 120)">
    <rect x="40" y="60" width="180" height="120" rx="16" fill="#FF3D00" stroke="#0A0A0A" stroke-width="3" transform="rotate(-3 130 120)"/>
    <rect x="30" y="40" width="180" height="120" rx="16" fill="#7C3AED" stroke="#0A0A0A" stroke-width="3" transform="rotate(2 120 100)"/>
    <rect x="20" y="20" width="180" height="120" rx="16" fill="#0052FF" stroke="#0A0A0A" stroke-width="3"/>
    <circle cx="180" cy="110" r="28" fill="#0A0A0A" stroke="white" stroke-width="3"/>
    <path d="M168 110 L176 118 L192 102" stroke="#00FF88" stroke-width="3.5" stroke-linecap="round" stroke-linejoin="round" fill="none"/>
  </g>
  <!-- right: text -->
  <text x="360" y="210" font-family="Inter, sans-serif" font-size="72" font-weight="900" fill="white" letter-spacing="-3">PRD KIT</text>
  <text x="360" y="250" font-family="JetBrains Mono, monospace" font-size="14" font-weight="700" fill="#7C3AED" letter-spacing="6">BRIEF-KU × ANTI-AI-SLOP × DESIGN-TEMPLATE</text>
  <text x="360" y="290" font-family="Inter, sans-serif" font-size="18" fill="#A1A1AA" letter-spacing="0">Adaptive questioning • 45-section PRD • 38-rule filter • 30 identities</text>
  <!-- badges -->
  <g transform="translate(360, 330)">
    <rect x="0" y="0" width="140" height="36" rx="18" fill="#0052FF" />
    <text x="70" y="23" text-anchor="middle" font-family="JetBrains Mono, monospace" font-size="11" font-weight="700" fill="white" letter-spacing="1">brief-ku</text>
    <text x="155" y="23" font-family="Inter, sans-serif" font-size="20" fill="#3A3A3A">×</text>
    <rect x="175" y="0" width="150" height="36" rx="18" fill="#FF3D00" />
    <text x="250" y="23" text-anchor="middle" font-family="JetBrains Mono, monospace" font-size="11" font-weight="700" fill="white" letter-spacing="1">anti-ai-slop</text>
    <text x="340" y="23" font-family="Inter, sans-serif" font-size="20" fill="#3A3A3A">×</text>
    <rect x="360" y="0" width="170" height="36" rx="18" fill="#7C3AED" />
    <text x="445" y="23" text-anchor="middle" font-family="JetBrains Mono, monospace" font-size="11" font-weight="700" fill="white" letter-spacing="1">design-template</text>
  </g>
  <!-- bottom stats -->
  <g transform="translate(360, 400)" opacity="0.9">
    <text x="0" y="0" font-family="Inter, sans-serif" font-size="13" font-weight="700" fill="#0052FF" letter-spacing="2">ADAPTIVE</text>
    <text x="0" y="18" font-family="JetBrains Mono, monospace" font-size="11" fill="#6B7280">5 Qs Round 1</text>
    <text x="140" y="0" font-family="Inter, sans-serif" font-size="13" font-weight="700" fill="#FF3D00" letter-spacing="2">FILTER-CLEAN</text>
    <text x="140" y="18" font-family="JetBrains Mono, monospace" font-size="11" fill="#6B7280">38 rules + Gate</text>
    <text x="300" y="0" font-family="Inter, sans-serif" font-size="13" font-weight="700" fill="#7C3AED" letter-spacing="2">DESIGN-DELIBERATE</text>
    <text x="300" y="18" font-family="JetBrains Mono, monospace" font-size="11" fill="#6B7280">30 identities</text>
  </g>
  <!-- version -->
  <text x="1240" y="620" text-anchor="end" font-family="JetBrains Mono, monospace" font-size="11" fill="#3A3A3A">muris11/prd-kit • v1.0.1 • MIT</text>
</svg>
